<svg width="37" height="37" viewBox="0 0 37 37" fill="none" xmlns="http://www.w3.org/2000/svg">
<path fill-rule="evenodd" clip-rule="evenodd" d="M14.9922 6.89356C14.9922 6.89356 12.0044 6.89818 9.2352 6.90281C6.04626 6.90859 3.46436 9.49628 3.46436 12.6841V27.75C3.46436 29.2832 4.0737 30.7539 5.15711 31.8385C6.24167 32.9219 7.71242 33.5312 9.2456 33.5312H24.2803C27.4739 33.5312 30.0616 30.9424 30.0616 27.75C30.0616 24.9692 30.0616 21.9641 30.0616 21.9641C30.0616 21.3259 29.5436 20.8079 28.9053 20.8079C28.2682 20.8079 27.7491 21.3259 27.7491 21.9641V27.75C27.7491 29.6659 26.1962 31.2187 24.2803 31.2187H9.2456C8.32523 31.2187 7.44301 30.8534 6.7932 30.2024C6.14223 29.5526 5.77685 28.6704 5.77685 27.75V12.6841C5.77685 10.7716 7.32623 9.21878 9.23982 9.21531C12.0079 9.21068 14.9968 9.20606 14.9968 9.20606C15.635 9.2049 16.1519 8.68574 16.1507 8.04749C16.1496 7.40924 15.6304 6.8924 14.9922 6.89356Z" fill="#363636"/>
<path fill-rule="evenodd" clip-rule="evenodd" d="M26.0989 4.49325L15.2637 15.3285C15.1053 15.4869 14.9954 15.6881 14.9503 15.9078L13.7004 21.8647C13.6206 22.2452 13.7374 22.6406 14.0103 22.9158C14.2843 23.1921 14.6774 23.3124 15.059 23.2361L21.0646 22.0359C21.2877 21.9908 21.4935 21.8809 21.6554 21.7191C21.6554 21.7191 28.6866 14.6879 32.4906 10.885C34.2551 9.11941 34.2551 6.25884 32.4906 4.49441C32.4895 4.49441 32.4895 4.49325 32.4895 4.49325C30.7239 2.72881 27.8633 2.72881 26.0989 4.49325ZM24.8143 9.04772L27.935 12.1696L20.2679 19.8367L16.3228 20.6252L17.1426 16.7194L24.8143 9.04772ZM29.5699 10.5335L26.4492 7.41278L27.7338 6.12819C28.5952 5.26678 29.992 5.26678 30.8534 6.12819C30.8545 6.12819 30.8545 6.12934 30.8545 6.12934C31.7159 6.99075 31.7159 8.3875 30.8545 9.24891L29.5699 10.5335Z" fill="#363636"/>
</svg>
