<svg width="34" height="33" viewBox="0 0 34 33" fill="none" xmlns="http://www.w3.org/2000/svg">
<path d="M30.2387 16.569C30.2387 16.1548 30.3768 15.6025 30.3768 15.1883C30.3768 6.76569 23.6111 0 15.1885 0C6.76593 0 0.000244141 6.76569 0.000244141 15.1883C0.000244141 23.6109 6.76593 30.3766 15.1885 30.3766C15.7408 30.3766 16.1551 30.3766 16.5693 30.2385L19.3308 33L21.2638 31.0669L14.3601 24.1632C11.7366 21.4017 11.7366 17.1213 14.3601 14.3598C15.7408 13.1172 17.5358 12.4268 19.3308 12.4268C21.1258 12.4268 22.9207 13.1172 24.1634 14.4979L31.0672 21.4017L33.1383 19.3305L30.2387 16.569ZM26.0965 12.4268C24.3015 10.6318 21.9542 9.66527 19.3308 9.66527C16.7074 9.66527 14.3601 10.6318 12.427 12.4268C8.69899 16.1548 8.69899 22.3682 12.427 26.0962L13.8078 27.477C7.59439 26.7866 2.76175 21.5397 2.76175 15.1883C2.76175 8.28452 8.28476 2.76151 15.1885 2.76151C21.54 2.76151 26.9249 7.59414 27.4772 13.9456L26.0965 12.4268ZM15.4647 15.4644C14.3601 16.431 13.8078 17.8117 13.8078 19.3305C13.8078 20.8494 14.3601 22.2301 15.4647 23.1967L18.3643 26.0962L26.2346 18.2259L23.335 15.3264C21.1258 13.3933 17.5358 13.3933 15.4647 15.4644ZM18.3643 22.2301L17.3977 21.2636C16.8454 20.7113 16.5693 20.0209 16.5693 19.3305C16.5693 18.6402 16.8454 17.9498 17.3977 17.3975C17.95 16.8452 18.6404 16.569 19.3308 16.569C20.0212 16.569 20.7115 16.8452 21.2638 17.3975L22.2304 18.364L18.3643 22.2301Z" fill="#333333"/>
</svg>

