<svg width="40" height="40" viewBox="0 0 40 40" fill="none" xmlns="http://www.w3.org/2000/svg">
<path d="M34 14.1C33.4696 14.1 32.9609 14.3107 32.5858 14.6858C32.2107 15.0609 32 15.5696 32 16.1V28C31.9968 29.0599 31.5744 30.0755 30.8249 30.8249C30.0755 31.5744 29.0599 31.9968 28 32H12C10.9401 31.9968 9.92453 31.5744 9.17507 30.8249C8.42561 30.0755 8.00317 29.0599 8 28V12C8.00317 10.9401 8.42561 9.92453 9.17507 9.17507C9.92453 8.42561 10.9401 8.00317 12 8H23.9C24.4304 8 24.9391 7.78929 25.3142 7.41421C25.6893 7.03914 25.9 6.53043 25.9 6C25.9 5.46957 25.6893 4.96086 25.3142 4.58579C24.9391 4.21071 24.4304 4 23.9 4H12C9.88022 4.00633 7.84906 4.85122 6.35014 6.35014C4.85122 7.84906 4.00633 9.88022 4 12V28C4.00633 30.1198 4.85122 32.1509 6.35014 33.6499C7.84906 35.1488 9.88022 35.9937 12 36H28C30.1198 35.9937 32.1509 35.1488 33.6499 33.6499C35.1488 32.1509 35.9937 30.1198 36 28V16.1C36 15.5696 35.7893 15.0609 35.4142 14.6858C35.0391 14.3107 34.5304 14.1 34 14.1ZM18.6 21.9C18.7806 22.0895 18.9978 22.2404 19.2385 22.3435C19.4791 22.4465 19.7382 22.4997 20 22.4997C20.2618 22.4997 20.5209 22.4465 20.7615 22.3435C21.0022 22.2404 21.2194 22.0895 21.4 21.9L32.9 10.4C33.2651 10.0274 33.4685 9.5258 33.4658 9.00414C33.4632 8.48248 33.2548 7.98294 32.8859 7.61407C32.5171 7.2452 32.0175 7.0368 31.4959 7.03417C30.9742 7.03153 30.4726 7.23487 30.1 7.6L18.6 19.1C18.4105 19.2806 18.2596 19.4978 18.1565 19.7385C18.0535 19.9791 18.0003 20.2382 18.0003 20.5C18.0003 20.7618 18.0535 21.0209 18.1565 21.2615C18.2596 21.5022 18.4105 21.7194 18.6 21.9Z" fill="#333333"/>
</svg>
