<svg width="40" height="41" viewBox="0 0 40 41" fill="none" xmlns="http://www.w3.org/2000/svg">
<g clip-path="url(#clip0_1267_8621)">
<path d="M19.5413 0.445801C15.6764 0.445801 11.8983 1.61878 8.68474 3.81641C5.47119 6.01404 2.96653 9.13761 1.4875 12.7921C0.00846697 16.4467 -0.378516 20.468 0.375489 24.3476C1.12949 28.2272 2.99062 31.7909 5.72352 34.5879C8.45642 37.385 11.9383 39.2898 15.729 40.0615C19.5196 40.8332 23.4487 40.4371 27.0194 38.9234C30.5901 37.4096 33.6421 34.8462 35.7893 31.5572C37.9365 28.2682 39.0826 24.4014 39.0826 20.4458C39.0826 15.1415 37.0238 10.0544 33.3591 6.30367C29.6944 2.55294 24.724 0.445801 19.5413 0.445801ZM27.5776 25.375C27.5776 27.5791 25.4118 28.55 23.4821 28.55C21.5524 28.55 19.3825 27.4791 19.3825 25.6958C19.3825 23.9125 19.3052 23.4 19.3052 21.6416C19.3052 19.0125 15.1771 19.3458 15.1404 21.8C15.116 23.2041 15.1404 25.55 15.1404 27.1916C15.1404 28.8333 11.969 28.6875 11.969 27.2833C11.969 25.8791 12.0464 12.7 12.0464 12.7C12.0464 12.7 14.5135 11.3166 15.1404 14.2791V19.0208C15.4702 17.0458 21.3814 14.9541 22.3911 21C22.3911 23.1125 22.3911 24.4041 22.3911 25.8625C22.3911 27.3208 24.4795 27.0625 24.4795 25.9333V18.4625C24.4795 17.5125 25.0373 17.2125 25.7864 17.2125C26.5354 17.2125 27.5736 17.475 27.5736 18.2541L27.5776 25.375ZM26.0266 15.6875C25.8081 15.708 25.5878 15.6831 25.3789 15.6143C25.1701 15.5455 24.9769 15.4342 24.8112 15.2871C24.6454 15.14 24.5104 14.9601 24.4142 14.7582C24.318 14.5564 24.2627 14.3367 24.2516 14.1125C24.2275 13.8838 24.2525 13.6525 24.3246 13.4347C24.3968 13.2168 24.5145 13.0177 24.6694 12.8511C24.8244 12.6846 25.013 12.5546 25.2221 12.4702C25.4311 12.3858 25.6556 12.349 25.88 12.3625C26.1068 12.3369 26.3362 12.3612 26.5531 12.4338C26.7699 12.5064 26.969 12.6256 27.1371 12.7835C27.3052 12.9413 27.4384 13.1341 27.5277 13.349C27.617 13.5638 27.6604 13.7957 27.655 14.0291C27.6637 14.25 27.6274 14.4703 27.5486 14.6761C27.4697 14.8818 27.3499 15.0686 27.1968 15.2245C27.0437 15.3804 26.8606 15.5021 26.6592 15.5818C26.4577 15.6615 26.2423 15.6975 26.0266 15.6875Z" fill="#333333"/>
</g>
<defs>
<clipPath id="clip0_1267_8621">
<rect width="39.0826" height="40" fill="white" transform="translate(0 0.445801)"/>
</clipPath>
</defs>
</svg>
