<svg width="35" height="37" viewBox="0 0 35 37" fill="none" xmlns="http://www.w3.org/2000/svg">
<path d="M32.4953 17.6789L29.2141 14.2102L18.2766 2.64768C18.1749 2.53931 18.0539 2.45329 17.9206 2.39459C17.7873 2.33589 17.6444 2.30566 17.5 2.30566C17.3556 2.30566 17.2126 2.33589 17.0794 2.39459C16.9461 2.45329 16.8251 2.53931 16.7234 2.64768L5.78593 14.2102L2.50468 17.6789C2.40217 17.7864 2.3208 17.9143 2.26527 18.0552C2.20974 18.1961 2.18115 18.3472 2.18115 18.4999C2.18115 18.6525 2.20974 18.8036 2.26527 18.9445C2.3208 19.0854 2.40217 19.2133 2.50468 19.3208C2.60636 19.4292 2.72733 19.5152 2.86061 19.5739C2.9939 19.6326 3.13686 19.6628 3.28124 19.6628C3.42563 19.6628 3.56859 19.6326 3.70187 19.5739C3.83516 19.5152 3.95613 19.4292 4.05781 19.3208L5.46874 17.8177V33.5311C5.46874 33.8378 5.58398 34.1319 5.7891 34.3487C5.99421 34.5656 6.27241 34.6874 6.56249 34.6874H28.4375C28.7276 34.6874 29.0058 34.5656 29.2109 34.3487C29.416 34.1319 29.5312 33.8378 29.5312 33.5311V17.8177L30.9422 19.3208C31.0439 19.4292 31.1648 19.5152 31.2981 19.5739C31.4314 19.6326 31.5744 19.6628 31.7187 19.6628C31.8631 19.6628 32.0061 19.6326 32.1394 19.5739C32.2727 19.5152 32.3936 19.4292 32.4953 19.3208C32.5978 19.2133 32.6792 19.0854 32.7347 18.9445C32.7902 18.8036 32.8188 18.6525 32.8188 18.4999C32.8188 18.3472 32.7902 18.1961 32.7347 18.0552C32.6792 17.9143 32.5978 17.7864 32.4953 17.6789ZM27.3437 32.3749H7.65624V15.5052L17.5 5.09893L27.3437 15.5052V32.3749Z" fill="#333333"/>
</svg>
