<svg width="48" height="48" viewBox="0 0 48 48" fill="none" xmlns="http://www.w3.org/2000/svg">
<g clip-path="url(#clip0_68_2250)">
<path d="M24 43.5C20.1433 43.5 16.3731 42.3563 13.1664 40.2136C9.95963 38.071 7.46027 35.0255 5.98436 31.4623C4.50845 27.8992 4.12228 23.9784 4.8747 20.1957C5.62711 16.4131 7.4843 12.9385 10.2114 10.2114C12.9386 7.48429 16.4131 5.62709 20.1957 4.87468C23.9784 4.12227 27.8992 4.50843 31.4623 5.98434C35.0255 7.46025 38.071 9.95962 40.2137 13.1664C42.3564 16.3731 43.5 20.1433 43.5 24C43.5 29.1717 41.4455 34.1316 37.7886 37.7886C34.1316 41.4455 29.1717 43.5 24 43.5ZM24 7.49999C20.7366 7.49999 17.5465 8.4677 14.8331 10.2807C12.1197 12.0938 10.0048 14.6707 8.756 17.6857C7.50715 20.7007 7.1804 24.0183 7.81705 27.219C8.45371 30.4197 10.0252 33.3597 12.3327 35.6673C14.6403 37.9748 17.5803 39.5463 20.781 40.1829C23.9817 40.8196 27.2993 40.4929 30.3143 39.244C33.3293 37.9952 35.9062 35.8803 37.7193 33.1669C39.5323 30.4535 40.5 27.2634 40.5 24C40.5 19.6239 38.7616 15.4271 35.6673 12.3327C32.5729 9.23838 28.3761 7.49999 24 7.49999Z" fill="white"/>
<path d="M33 25.5H15C14.6022 25.5 14.2206 25.342 13.9393 25.0607C13.658 24.7794 13.5 24.3978 13.5 24C13.5 23.6022 13.658 23.2206 13.9393 22.9393C14.2206 22.658 14.6022 22.5 15 22.5H33C33.3978 22.5 33.7794 22.658 34.0607 22.9393C34.342 23.2206 34.5 23.6022 34.5 24C34.5 24.3978 34.342 24.7794 34.0607 25.0607C33.7794 25.342 33.3978 25.5 33 25.5Z" fill="white"/>
</g>
<defs>
<clipPath id="clip0_68_2250">
<rect width="48" height="48" fill="white"/>
</clipPath>
</defs>
</svg>
