<svg width="37" height="37" viewBox="0 0 37 37" fill="none" xmlns="http://www.w3.org/2000/svg">
<path d="M29.9154 4.00394C30.4026 4.39372 30.8333 4.98467 30.8333 5.78026C30.8333 6.98953 30.0637 7.77755 29.1873 8.23709C28.3469 8.67768 27.247 8.91929 26.0884 9.06575C23.8514 9.3485 20.9318 9.3244 18.0948 9.30098L17.7199 9.29791C14.705 9.27366 11.817 9.26534 9.68409 9.5807C8.60922 9.73962 7.84977 9.96524 7.38776 10.233C6.97399 10.4727 6.9379 10.6492 6.9375 10.7892L6.93898 10.7921C6.94633 10.8061 6.97428 10.8513 7.05405 10.9208C7.22544 11.07 7.53934 11.2484 8.03494 11.4242C9.01932 11.7735 10.3998 12.0039 11.8672 12.1459C12.0226 12.1609 12.1781 12.1749 12.3333 12.1879V14.508C12.1048 14.49 11.8747 14.4699 11.6445 14.4476C10.1246 14.3006 8.51777 14.0492 7.26168 13.6036C6.63704 13.382 6.01742 13.0845 5.53532 12.6647C5.0333 12.2275 4.625 11.6013 4.625 10.7915C4.625 9.58297 5.33759 8.74831 6.22829 8.23214C7.07309 7.7426 8.1805 7.46536 9.34586 7.29307C11.6934 6.94596 14.7793 6.96169 17.7384 6.98549L18.0192 6.98777C20.9381 7.01154 23.7201 7.03419 25.7984 6.77151C26.88 6.63479 27.6469 6.43365 28.1134 6.18903C28.4128 6.03209 28.4928 5.91678 28.5137 5.84646C28.5029 5.83642 28.4889 5.82415 28.4707 5.80965C28.3204 5.68933 28.0292 5.53589 27.5499 5.38334C26.6016 5.08152 25.2513 4.88463 23.7562 4.766C21.2986 4.57099 18.6887 4.60198 17.2856 4.61863C16.9904 4.62213 16.7487 4.625 16.5729 4.625C15.9344 4.625 15.4167 4.10732 15.4167 3.46873C15.4167 2.83016 15.9344 2.3125 16.5729 2.3125C16.7249 2.3125 16.944 2.30983 17.2179 2.30647C18.595 2.28964 21.357 2.25587 23.9392 2.46074C25.4793 2.58295 27.0436 2.79541 28.2512 3.17976C28.85 3.37033 29.4471 3.62919 29.9154 4.00394ZM21.5756 14.382C21.4726 12.2856 20.1927 10.7915 18.1137 10.7915C15.9441 10.7915 14.6449 12.4183 14.6449 14.6588V21.084L14.2453 20.9615C12.4089 20.4254 10.9702 20.3947 9.88822 20.9359C8.41833 21.6708 7.66276 22.9894 7.70066 24.6985C7.71018 25.128 7.95702 25.5168 8.34163 25.7081L11.9845 27.5202L12.1346 27.6009L12.2794 27.691L15.1834 29.627L15.4816 29.841C16.1585 30.3627 16.702 31.0406 17.0639 31.8188L17.1088 31.9153L17.2311 32.154C17.928 33.3931 19.3211 34.0904 20.7465 33.8859L24.4747 33.3509L24.7294 33.3047C25.9874 33.0273 26.9971 32.0709 27.3331 30.8127L28.9491 24.7644L29.0148 24.4877C29.5525 21.904 27.9829 19.3202 25.4017 18.6306C25.2702 18.5955 25.1375 18.5657 25.0037 18.5413L21.5824 17.9202V14.6588L21.5756 14.382ZM16.9634 14.4397C17.0154 13.5279 17.4045 13.104 18.1137 13.104C18.8772 13.104 19.2699 13.5956 19.2699 14.6588V18.8853L19.2816 19.0504C19.3513 19.5362 19.7247 19.9332 20.2196 20.023L24.6981 20.8384L24.8048 20.8646C26.2444 21.2493 27.0996 22.728 26.7149 24.1675L25.0991 30.2158L25.0425 30.3778C24.8845 30.7422 24.5473 31.0043 24.1462 31.0618L20.4181 31.5968L20.2507 31.6085C19.8072 31.6076 19.3966 31.3509 19.2055 30.9399L19.1606 30.8435L18.9727 30.4669C18.379 29.3549 17.5187 28.4046 16.4662 27.7029L13.5621 25.7668L13.2933 25.5997L13.0144 25.4497L10.0772 23.9887L10.1365 23.8043C10.2746 23.4526 10.5308 23.2 10.9224 23.0042C11.5965 22.6672 13.1086 22.8838 15.3604 23.8123C16.1215 24.126 16.9574 23.5666 16.9574 22.7433V14.6588L16.9634 14.4397Z" fill="#363636"/>
</svg>
