<svg width="33" height="33" viewBox="0 0 33 33" fill="none" xmlns="http://www.w3.org/2000/svg">
<g clip-path="url(#clip0_566_5789)">
<path d="M32.0638 5.94119L27.0594 0.936782C26.4553 0.332657 25.6521 0 24.7978 0C23.9436 0 23.1404 0.332657 22.5364 0.936763L1.58777 21.8853C1.38893 22.0841 1.26076 22.3427 1.22298 22.6214L0.0121724 31.5416C-0.0417977 31.9395 0.0931275 32.3396 0.377025 32.6235C0.619696 32.8662 0.94733 33 1.28588 33C1.34331 33 1.40111 32.9962 1.45886 32.9883L10.3791 31.7775C10.6577 31.7397 10.9163 31.6116 11.1152 31.4127L32.0638 10.4642C32.6678 9.86018 33.0005 9.057 33.0005 8.20275C33.0005 7.34842 32.6678 6.54526 32.0638 5.94119ZM9.60377 29.2883L2.78686 30.2135L3.71218 23.3967L18.5569 8.55198L24.4485 14.4436L9.60377 29.2883ZM30.2458 8.64628L26.2664 12.6257L20.3748 6.73406L24.3542 2.7547C24.5141 2.59482 24.7008 2.57092 24.7978 2.57092C24.8949 2.57092 25.0815 2.59482 25.2415 2.7547L30.2459 7.75911C30.4058 7.91898 30.4296 8.10566 30.4296 8.20269C30.4296 8.29972 30.4057 8.48639 30.2458 8.64628Z" fill="#333333"/>
</g>
<defs>
<clipPath id="clip0_566_5789">
<rect width="33" height="33" fill="white" transform="translate(0.000244141)"/>
</clipPath>
</defs>
</svg>
