<svg width="87" height="87" viewBox="0 0 87 89" fill="none" xmlns="http://www.w3.org/2000/svg">
  <g transform="translate(25 30)">
    <svg width="37" height="37" viewBox="0 5 37 37" fill="none" xmlns="http://www.w3.org/2000/svg">
<g clip-path="url(#clip0_371_9512)">
<path d="M17.3299 30.6329H1.80664V6.23926H35.0708V17.3273" stroke="#333333" stroke-width="2.21761" stroke-linejoin="round"/>
<path d="M1.80664 6.23926L18.4387 18.4361L35.0708 6.23926" stroke="#333333" stroke-width="2.21761" stroke-linejoin="round"/>
<path d="M32.853 23.98V30.6328H26.2002" stroke="#333333" stroke-width="2.21761" stroke-linejoin="round"/>
<path d="M32.8529 30.6331L23.9824 21.7627" stroke="#333333" stroke-width="2.21761" stroke-linejoin="round"/>
</g>
<defs>
<clipPath id="clip0_371_9512">
<rect width="35.4817" height="35.4817" fill="white" transform="translate(0.697266 0.695312)"/>
</clipPath>
</defs>
</svg>

  </g>

  <g transform="translate(0 0)">
    <svg width="87" height="89" viewBox="0 0 87 89" fill="none" xmlns="http://www.w3.org/2000/svg">
<g filter="url(#filter0_d_371_9511)">
<path d="M79.5527 42.1201C79.5527 37.3642 78.6415 32.8212 76.984 28.6561C75.1315 24.0009 72.3469 19.8179 68.8607 16.3374C62.2695 9.75701 53.1702 5.68799 43.1206 5.68799C22.9997 5.68799 6.68848 21.9992 6.68848 42.1201C6.68848 62.241 22.9997 78.5522 43.1206 78.5522C47.0355 78.5522 50.8063 77.9347 54.3407 76.7918C57.2705 75.8444 60.038 74.5359 62.5907 72.9188C64.8633 71.4791 66.9657 69.7947 68.8607 67.9028" stroke="#333333" stroke-width="9.90003" stroke-linecap="square" stroke-linejoin="round"/>
</g>
<defs>
<filter id="filter0_d_371_9511" x="0.154276" y="0.737793" width="85.9327" height="87.5167" filterUnits="userSpaceOnUse" color-interpolation-filters="sRGB">
<feFlood flood-opacity="0" result="BackgroundImageFix"/>
<feColorMatrix in="SourceAlpha" type="matrix" values="0 0 0 0 0 0 0 0 0 0 0 0 0 0 0 0 0 0 127 0" result="hardAlpha"/>
<feOffset dy="3.16801"/>
<feGaussianBlur stdDeviation="0.792003"/>
<feComposite in2="hardAlpha" operator="out"/>
<feColorMatrix type="matrix" values="0 0 0 0 0 0 0 0 0 0 0 0 0 0 0 0 0 0 0.25 0"/>
<feBlend mode="normal" in2="BackgroundImageFix" result="effect1_dropShadow_371_9511"/>
<feBlend mode="normal" in="SourceGraphic" in2="effect1_dropShadow_371_9511" result="shape"/>
</filter>
</defs>
</svg>

  </g>
</svg>