<svg width="37" height="37" viewBox="0 0 37 37" fill="none" xmlns="http://www.w3.org/2000/svg">
<path d="M18.5 18.5C20.1008 18.5 21.6656 18.0253 22.9966 17.136C24.3277 16.2466 25.3651 14.9825 25.9777 13.5036C26.5902 12.0247 26.7505 10.3973 26.4382 8.82724C26.1259 7.25721 25.3551 5.81504 24.2231 4.68311C23.0912 3.55118 21.649 2.78032 20.079 2.46802C18.509 2.15572 16.8816 2.31601 15.4027 2.9286C13.9237 3.5412 12.6596 4.5786 11.7703 5.90961C10.8809 7.24062 10.4062 8.80546 10.4062 10.4063C10.4062 12.5528 11.259 14.6115 12.7769 16.1294C14.2947 17.6473 16.3534 18.5 18.5 18.5ZM18.5 4.625C19.6434 4.625 20.7612 4.96407 21.7119 5.59932C22.6626 6.23457 23.4036 7.13748 23.8412 8.19386C24.2787 9.25025 24.3932 10.4127 24.1702 11.5341C23.9471 12.6556 23.3965 13.6857 22.588 14.4942C21.7794 15.3027 20.7493 15.8533 19.6279 16.0764C18.5064 16.2995 17.344 16.185 16.2876 15.7474C15.2312 15.3099 14.3283 14.5689 13.6931 13.6181C13.0578 12.6674 12.7188 11.5497 12.7188 10.4063C12.7188 8.87297 13.3278 7.40249 14.412 6.31829C15.4962 5.2341 16.9667 4.625 18.5 4.625Z" fill="#363636"/>
<path d="M19.6562 20.8125H17.3438C13.9705 20.8125 10.7355 22.1525 8.35024 24.5377C5.96501 26.923 4.625 30.158 4.625 33.5312C4.625 33.8379 4.74682 34.132 4.96366 34.3488C5.1805 34.5657 5.47459 34.6875 5.78125 34.6875H31.2188C31.5254 34.6875 31.8195 34.5657 32.0363 34.3488C32.2532 34.132 32.375 33.8379 32.375 33.5312C32.375 30.158 31.035 26.923 28.6498 24.5377C26.2645 22.1525 23.0295 20.8125 19.6562 20.8125ZM7.00688 32.375C7.29119 29.832 8.5025 27.4829 10.4093 25.7765C12.3162 24.0702 14.7849 23.1262 17.3438 23.125H19.6562C22.2151 23.1262 24.6838 24.0702 26.5907 25.7765C28.4975 27.4829 29.7088 29.832 29.9931 32.375H7.00688Z" fill="#363636"/>
</svg>
