<svg width="1170" height="844" viewBox="0 0 1170 844" fill="none" xmlns="http://www.w3.org/2000/svg">
<g clip-path="url(#clip0_465_4338)">
<rect width="1170" height="844"/>
<path d="M420.65 859.95C420.65 871.493 411.416 880.85 400.025 880.85C388.634 880.85 379.4 871.493 379.4 859.95C379.4 848.407 388.634 839.05 400.025 839.05C411.416 839.05 420.65 848.407 420.65 859.95Z" stroke="#D9D9D9" stroke-width="16.5" stroke-linejoin="round"/>
<path d="M873.826 729.05C843.463 729.05 818.852 756.135 818.852 789.55C818.852 801.15 821.818 811.993 826.965 821.199" stroke="#FFBFDA" stroke-width="16.5" stroke-linejoin="round"/>
<path d="M460.25 536.523C460.25 506.161 433.164 481.55 399.75 481.55C388.148 481.55 377.309 484.516 368.101 489.663M339.25 573.95L339.25 536.523C339.25 524.546 343.466 513.462 350.621 504.434" stroke="#D9D9D9" stroke-width="16.5" stroke-linejoin="round"/>
<path d="M955.252 688.625L955.252 686.901C955.252 674.641 965.226 664.7 977.527 664.7C989.828 664.7 999.802 674.641 999.802 686.901L999.802 738.2C999.802 750.459 989.828 760.4 977.527 760.4C965.226 760.4 955.252 750.459 955.252 738.2L955.252 736.475" stroke="#D2B8F5" stroke-width="16.5" stroke-linejoin="round"/>
<path d="M1002 494.2C1002 479.922 990.43 468.35 976.152 468.35C961.874 468.35 950.302 479.922 950.302 494.2" stroke="#59BAC3" stroke-width="16.5" stroke-linejoin="round"/>
<path d="M464.65 714.51C464.65 726.487 455.046 736.2 443.2 736.2C431.354 736.2 421.75 726.487 421.75 714.51L421.75 690" stroke="#FFBFDA" stroke-width="16.5" stroke-linejoin="round"/>
<path d="M344.75 26.1498L344.75 -96.4726C344.75 -120.485 364.204 -139.95 388.2 -139.95" stroke="#D2B8F5" stroke-width="16.5" stroke-linejoin="round"/>
<path d="M1002 792.75L918.358 792.75C901.979 792.75 888.702 779.453 888.702 763.05C888.702 746.646 901.979 733.35 918.358 733.35L931.304 733.35" stroke="#59BAC3" stroke-width="16.5" stroke-linejoin="round"/>
<path d="M562.55 -42.5998C562.55 -14.0468 539.772 9.10019 511.675 9.1002C483.577 9.1002 460.8 -14.0468 460.8 -42.5998C460.8 -71.1529 483.577 -94.2998 511.675 -94.2998" stroke="#FFBFDA" stroke-width="16.5" stroke-linejoin="round"/>
<path d="M397.275 -1.14119C410.489 -1.14119 421.2 -11.7763 421.2 -24.8958C421.2 -38.0152 410.489 -48.6504 397.275 -48.6504C384.062 -48.6504 373.35 -38.0152 373.35 -24.8958L373.35 21.7496" stroke="#D9D9D9" stroke-width="16.5" stroke-linejoin="round"/>
<path d="M393.425 318.2L361.334 318.2C352.175 318.2 344.75 325.589 344.75 334.7C344.75 343.812 352.175 351.2 361.334 351.2L425.517 351.2C434.676 351.2 442.1 343.812 442.1 334.7C442.1 325.589 434.676 318.2 425.517 318.2L417.763 318.2" stroke="#FFBFDA" stroke-width="16.5" stroke-linejoin="round"/>
<path d="M349.7 287.399L433.206 287.399C458.166 287.399 478.4 307.714 478.4 332.774C478.4 357.834 458.166 378.149 433.206 378.149L413.477 378.149" stroke="#59BAC3" stroke-width="16.5" stroke-linejoin="round"/>
<path d="M373.35 610.8L373.35 709.788C373.35 747.46 404.008 778 441.825 778C479.643 778 510.3 747.46 510.3 709.788L510.3 680.007" stroke="#59BAC3" stroke-width="16.5" stroke-linejoin="round"/>
<path d="M513.05 876.45L558.156 876.45C577.593 876.45 593.35 860.547 593.35 840.926L593.35 813.2" stroke="#D2B8F5" stroke-width="16.5" stroke-linejoin="round"/>
<path d="M540.55 192.8L570.797 192.8C592.669 192.8 610.4 210.529 610.4 232.4" stroke="#59BAC3" stroke-width="16.5" stroke-linejoin="round"/>
<path d="M754.502 131.75L707.158 131.75C679.897 131.75 657.062 153.112 651.102 181.8" stroke="#FFBFDA" stroke-width="16.5" stroke-linejoin="round"/>
<path d="M584.275 678.175L584.275 736.095C584.275 769.446 610.333 797.383 645.325 804.675" stroke="#D2B8F5" stroke-width="16.5"/>
<path d="M518.715 796.7C504.347 796.7 492.7 808.398 492.7 822.825C492.7 837.252 504.347 848.95 518.715 848.95L537.635 848.95C552.002 848.95 563.65 837.252 563.65 822.825C563.65 808.398 552.002 796.7 537.635 796.7L518.715 796.7Z" stroke="#59BAC3" stroke-width="16.5" stroke-linejoin="round"/>
<path d="M544.4 254.949L433.958 254.949C412.332 254.949 394.8 237.466 394.8 215.899" stroke="#FFBFDA" stroke-width="16.5" stroke-linejoin="round"/>
<path d="M478.4 624.55C478.4 634.27 470.52 642.15 460.8 642.15C451.079 642.15 443.2 634.27 443.2 624.55C443.2 614.83 451.079 606.95 460.8 606.95C470.52 606.95 478.4 614.83 478.4 624.55Z" stroke="#59BAC3" stroke-width="16.5" stroke-linejoin="round"/>
<path d="M510.3 624.55C510.3 652.494 488.015 675.15 460.525 675.15C433.035 675.15 410.75 652.494 410.75 624.55C410.75 596.606 433.035 573.95 460.525 573.95" stroke="#FFBFDA" stroke-width="16.5" stroke-linejoin="round"/>
<path d="M378.85 539.025C378.85 527.634 388.084 518.4 399.475 518.4C410.866 518.4 420.1 527.634 420.1 539.025C420.1 550.416 410.866 559.65 399.475 559.65L378.85 559.65" stroke="#D2B8F5" stroke-width="16.5" stroke-linejoin="round"/>
<path d="M789.019 457.625C789.019 444.413 799.635 433.7 812.734 433.7C825.832 433.7 836.452 444.413 836.452 457.625C836.452 470.838 825.832 481.55 812.734 481.55L740.202 481.55" stroke="#D9D9D9" stroke-width="16.5" stroke-linejoin="round"/>
<path d="M950.577 364.307C962.575 364.307 972.302 373.933 972.302 385.806C972.302 397.678 962.575 407.3 950.577 407.3C938.579 407.3 928.852 397.678 928.852 385.806L928.852 313.8" stroke="#FFBFDA" stroke-width="16.5" stroke-linejoin="round"/>
<path d="M959.102 274.085L959.102 328.764C959.102 339.941 968.212 349 979.452 349C990.692 349 999.802 339.941 999.802 328.764L999.802 274.085C999.802 262.91 990.692 253.85 979.452 253.85C968.212 253.85 959.102 262.91 959.102 274.085Z" stroke="#D9D9D9" stroke-width="16.5" stroke-linejoin="round"/>
<path d="M486.1 172.45C513.438 172.45 535.6 150.288 535.6 122.95C535.6 95.612 513.438 73.4502 486.1 73.4502" stroke="#FFBFDA" stroke-width="16.5" stroke-linejoin="round"/>
<path d="M510.85 215.35L450.351 215.35C438.504 215.35 428.9 205.747 428.9 193.9C428.9 182.054 438.504 172.45 450.351 172.45L459.715 172.45" stroke="#D2B8F5" stroke-width="16.5" stroke-linejoin="round"/>
<path d="M590.05 88.3002C590.05 96.5016 583.525 103.15 575.475 103.15C567.426 103.15 560.9 96.5016 560.9 88.3002C560.9 80.0988 567.426 73.4502 575.475 73.4502C583.525 73.4502 590.05 80.0988 590.05 88.3002Z" stroke="#D2B8F5" stroke-width="16.5" stroke-linejoin="round"/>
<path d="M476.874 100.95L416.126 100.95C404.348 100.95 394.8 110.554 394.8 122.4C394.8 134.247 404.348 143.85 416.126 143.85L476.874 143.85C488.652 143.85 498.2 134.247 498.2 122.4C498.2 110.554 488.652 100.95 476.874 100.95Z" stroke="#D9D9D9" stroke-width="16.5" stroke-linejoin="round"/>
<path d="M510.85 592.099L510.85 543.658C510.85 513.003 535.72 488.149 566.4 488.149" stroke="#FFBFDA" stroke-width="16.5" stroke-linejoin="round"/>
<path d="M617.551 640.225C617.551 628.227 627.155 618.5 639.001 618.5C650.848 618.5 660.451 628.227 660.451 640.225C660.451 652.223 650.848 661.95 639.001 661.95L617.551 661.95" stroke="#FFBFDA" stroke-width="16.5" stroke-linejoin="round"/>
<path d="M719.166 773.05C749.92 773.05 774.852 798.291 774.852 829.425C774.852 860.558 749.92 885.8 719.166 885.8L659.352 885.8" stroke="#59BAC3" stroke-width="16.5" stroke-linejoin="round"/>
<path d="M745.152 743.694L745.152 740.891C745.152 724.936 732.224 712 716.277 712C700.33 712 687.402 724.936 687.402 740.891L687.402 828.859C687.402 844.814 700.33 857.75 716.277 857.75C732.224 857.75 745.152 844.814 745.152 828.859L745.152 827.996" stroke="#D2B8F5" stroke-width="16.5" stroke-linejoin="round"/>
<path d="M617.551 690L617.551 725.492C617.551 749.329 636.758 768.65 660.451 768.65" stroke="#59BAC3" stroke-width="16.5" stroke-linejoin="round"/>
<path d="M834.252 322.049C834.252 333.592 825.018 342.949 813.627 342.949C802.236 342.949 793.002 333.592 793.002 322.049C793.002 310.507 802.236 301.149 813.627 301.149C825.018 301.149 834.252 310.507 834.252 322.049Z" stroke="#D2B8F5" stroke-width="16.5" stroke-linejoin="round"/>
<path d="M801.538 271.122C830.206 263.453 859.566 280.041 867.118 308.168C874.67 336.295 857.551 365.311 828.883 372.978C800.215 380.646 770.855 364.059 763.302 335.932" stroke="#D9D9D9" stroke-width="16.5" stroke-linejoin="round"/>
<path d="M763.083 309.212L763.083 207.319C763.073 187.683 746.846 171.756 726.838 171.747C706.83 171.738 690.617 187.648 690.627 207.284C690.638 226.92 706.864 242.848 726.872 242.856L726.872 209.68" stroke="#D2B8F5" stroke-width="16.5"/>
<path d="M645.602 306.925C650.529 306.925 712.554 306.925 742.952 306.925" stroke="#59BAC3" stroke-width="16.5" stroke-linejoin="round"/>
<path d="M950.852 119.661C950.852 110.846 943.835 103.7 935.177 103.7C926.519 103.7 919.502 110.846 919.502 119.661L919.502 136.7" stroke="#D9D9D9" stroke-width="16.5" stroke-linejoin="round"/>
<path d="M974.502 24.2244C974.502 36.8303 964.406 47.0494 951.952 47.0494C939.498 47.0494 929.402 36.8303 929.402 24.2244C929.402 11.6185 939.498 1.39941 951.952 1.39941C964.406 1.39941 974.502 11.6185 974.502 24.2244Z" stroke="#FFBFDA" stroke-width="16.5" stroke-linejoin="round"/>
<path d="M951.402 72.3498C923.458 72.3498 900.802 50.0648 900.802 22.5748C900.802 -4.91522 923.458 -27.2002 951.402 -27.2002C979.346 -27.2002 1002 -4.91522 1002 22.5748" stroke="#D2B8F5" stroke-width="16.5" stroke-linejoin="round"/>
<path d="M919.502 157.05L919.502 177.897C919.502 191.899 908.668 203.25 895.302 203.25C881.936 203.25 871.102 191.899 871.102 177.897L871.102 136.202C871.102 122.2 881.936 110.85 895.302 110.85" stroke="#D2B8F5" stroke-width="16.5" stroke-linejoin="round"/>
<path d="M884.852 72.8994C859.339 72.8994 838.652 93.494 838.652 118.899L838.652 199.949" stroke="#D2B8F5" stroke-width="16.5" stroke-linejoin="round"/>
<path d="M838.652 46.7744C840.989 46.7744 870.424 46.7744 884.852 46.7744" stroke="#FFBFDA" stroke-width="16.5" stroke-linejoin="round"/>
<path d="M700.602 276.675C702.634 276.675 728.215 276.675 740.752 276.675" stroke="#FFBFDA" stroke-width="16.5" stroke-linejoin="round"/>
<path d="M587.025 340.246C599.631 340.246 609.85 330.141 609.85 317.673C609.85 305.204 599.631 295.1 587.025 295.1C574.419 295.1 564.2 305.204 564.2 317.673L564.2 390.25" stroke="#FFBFDA" stroke-width="16.5" stroke-linejoin="round"/>
<path d="M635.975 419.4L603.884 419.4C594.725 419.4 587.3 426.789 587.3 435.9C587.3 445.012 594.725 452.4 603.884 452.4L668.066 452.4C677.225 452.4 684.65 445.012 684.65 435.9C684.65 426.789 677.225 419.4 668.066 419.4L660.313 419.4" stroke="#D9D9D9" stroke-width="16.5" stroke-linejoin="round"/>
<path d="M587.3 390.8L670.806 390.8C695.766 390.8 716 411.115 716 436.175C716 461.235 695.766 481.55 670.806 481.55L651.077 481.55" stroke="#59BAC3" stroke-width="16.5" stroke-linejoin="round"/>
<path d="M513.05 397.95L513.05 374.133C513.05 356.911 527.086 342.95 544.4 342.95" stroke="#D2B8F5" stroke-width="16.5" stroke-linejoin="round"/>
<path d="M489.4 419.125C492.739 419.125 543.604 419.125 564.2 419.125" stroke="#FFBFDA" stroke-width="16.5" stroke-linejoin="round"/>
<path d="M611.582 555.8L618.833 555.8C629.06 555.8 637.351 547.455 637.351 537.168C637.351 526.877 629.06 518.532 618.833 518.532L612.827 518.532C602.678 518.532 594.451 510.253 594.451 500.043C594.451 489.83 602.678 481.55 612.827 481.55L620.219 481.55" stroke="#59BAC3" stroke-width="16.5" stroke-linejoin="round"/>
<path d="M719.852 -10.1504L687.366 -10.1504C668.66 -10.1504 652.992 4.6391 648.902 24.4996" stroke="#D9D9D9" stroke-width="16.5" stroke-linejoin="round"/>
<path d="M709.336 19.5498C694.792 19.5498 683.002 31.3696 683.002 45.9498C683.002 60.53 694.792 72.3498 709.336 72.3498L771.068 72.3498C785.612 72.3498 797.402 60.53 797.402 45.9498C797.402 31.3696 785.612 19.5498 771.068 19.5498L709.336 19.5498Z" stroke="#59BAC3" stroke-width="16.5" stroke-linejoin="round"/>
<path d="M828.992 518.399C817.015 518.399 807.302 528.002 807.302 539.849C807.302 551.697 817.015 561.299 828.992 561.299L853.502 561.299" stroke="#FFBFDA" stroke-width="16.5" stroke-linejoin="round"/>
<path d="M817.202 606.675C817.202 619.281 807.106 629.5 794.652 629.5C782.198 629.5 772.102 619.281 772.102 606.675C772.102 594.069 782.198 583.85 794.652 583.85C807.106 583.85 817.202 594.069 817.202 606.675Z" stroke="#FFBFDA" stroke-width="16.5" stroke-linejoin="round"/>
<path d="M894.477 562.254C905.868 562.254 915.102 553.051 915.102 541.702C915.102 530.353 905.868 521.15 894.477 521.15C883.086 521.15 873.852 530.353 873.852 541.702L873.852 618.5" stroke="#D9D9D9" stroke-width="16.5" stroke-linejoin="round"/>
<path d="M742.402 536.55L742.402 611.44C742.402 639.943 765.551 663.05 794.102 663.05C822.653 663.05 845.802 639.943 845.802 611.439L845.802 588.911" stroke="#D2B8F5" stroke-width="16.5" stroke-linejoin="round"/>
<path d="M873.852 645.45L873.852 669.18C873.852 693.134 893.352 712.55 917.409 712.55L961.852 712.55" stroke="#D9D9D9" stroke-width="16.5" stroke-linejoin="round"/>
<path d="M932.152 668.55C932.152 676.752 925.627 683.4 917.577 683.4C909.527 683.4 903.002 676.752 903.002 668.55C903.002 660.349 909.527 653.7 917.577 653.7C925.627 653.7 932.152 660.349 932.152 668.55Z" stroke="#D2B8F5" stroke-width="16.5" stroke-linejoin="round"/>
<path d="M966.802 587.959C972.302 587.969 977.802 587.98 983.302 587.99" stroke="#59BAC3" stroke-width="16.5" stroke-linejoin="round"/>
<path d="M934.352 587.959C939.852 587.969 945.352 587.98 950.852 587.99" stroke="#D9D9D9" stroke-width="16.5" stroke-linejoin="round"/>
<path d="M906.302 485.109C911.802 485.12 917.302 485.13 922.802 485.141" stroke="#59BAC3" stroke-width="16.5" stroke-linejoin="round"/>
<path d="M873.852 485.109C879.352 485.12 884.852 485.13 890.352 485.141" stroke="#FFBFDA" stroke-width="16.5" stroke-linejoin="round"/>
<path d="M873.852 452.109C879.352 452.12 884.852 452.13 890.352 452.141" stroke="#D9D9D9" stroke-width="16.5" stroke-linejoin="round"/>
<path d="M830.402 223.309C835.902 223.319 841.402 223.33 846.902 223.34" stroke="#D2B8F5" stroke-width="16.5" stroke-linejoin="round"/>
<path d="M619.751 53.9092C625.251 53.9197 630.751 53.9301 636.251 53.9406" stroke="#FFBFDA" stroke-width="16.5" stroke-linejoin="round"/>
<path d="M579.05 26.959C584.55 26.9695 590.05 26.9799 595.55 26.9904" stroke="#D9D9D9" stroke-width="16.5" stroke-linejoin="round"/>
<path d="M601.601 254.659C607.101 254.67 612.601 254.68 618.101 254.691" stroke="#59BAC3" stroke-width="16.5" stroke-linejoin="round"/>
<path d="M427.25 418.56C432.75 418.57 438.25 418.581 443.75 418.591" stroke="#59BAC3" stroke-width="16.5" stroke-linejoin="round"/>
<path d="M395.9 418.559C401.4 418.569 406.9 418.58 412.4 418.59" stroke="#D2B8F5" stroke-width="16.5" stroke-linejoin="round"/>
<path d="M689.602 599.51C695.102 599.52 700.602 599.531 706.102 599.541" stroke="#D2B8F5" stroke-width="16.5" stroke-linejoin="round"/>
<path d="M689.602 638.56C695.102 638.57 700.602 638.581 706.102 638.591" stroke="#D2B8F5" stroke-width="16.5" stroke-linejoin="round"/>
<path d="M689.602 677.609C695.102 677.62 700.602 677.63 706.102 677.641" stroke="#D2B8F5" stroke-width="16.5" stroke-linejoin="round"/>
<path d="M210.574 148.2C180.211 148.2 155.6 121.115 155.6 87.7002C155.6 76.0997 158.566 65.2571 163.713 56.0508M248 27.2002L210.574 27.2002C198.596 27.2002 187.513 31.4158 178.484 38.5725" stroke="#FFBFDA" stroke-width="16.5" stroke-linejoin="round"/>
<path d="M292 188.625L292 190.349C292 202.609 301.974 212.55 314.275 212.55C326.576 212.55 336.55 202.609 336.55 190.349L336.55 139.05C336.55 126.791 326.576 116.85 314.275 116.85C301.974 116.85 292 126.791 292 139.05L292 140.775" stroke="#D2B8F5" stroke-width="16.5" stroke-linejoin="round"/>
<path d="M338.75 383.05C338.75 397.328 327.178 408.9 312.9 408.9C298.622 408.9 287.05 397.328 287.05 383.05" stroke="#59BAC3" stroke-width="16.5" stroke-linejoin="round"/>
<path d="M338.75 74.5004L255.106 74.5004C238.727 74.5004 225.45 87.7965 225.45 104.2C225.45 120.604 238.727 133.9 255.106 133.9L268.052 133.9" stroke="#59BAC3" stroke-width="16.5" stroke-linejoin="round"/>
<path d="M111.25 755.5L63.9063 755.5C36.6459 755.5 13.8105 734.138 7.8501 705.45" stroke="#FFBFDA" stroke-width="16.5" stroke-linejoin="round"/>
<path d="M67 948.75C97.7541 948.75 122.685 923.509 122.685 892.375C122.685 861.241 97.7541 836 67 836" stroke="#59BAC3" stroke-width="16.5" stroke-linejoin="round"/>
<path d="M125.767 419.625C125.767 432.837 136.383 443.55 149.482 443.55C162.58 443.55 173.2 432.837 173.2 419.625C173.2 406.412 162.58 395.7 149.482 395.7L76.9502 395.7" stroke="#D9D9D9" stroke-width="16.5" stroke-linejoin="round"/>
<path d="M287.325 512.943C299.323 512.943 309.05 503.317 309.05 491.444C309.05 479.572 299.323 469.95 287.325 469.95C275.327 469.95 265.6 479.572 265.6 491.444L265.6 563.45" stroke="#FFBFDA" stroke-width="16.5" stroke-linejoin="round"/>
<path d="M295.85 693.165L295.85 638.486C295.85 627.309 304.96 618.25 316.2 618.25C327.44 618.25 336.55 627.309 336.55 638.486L336.55 693.165C336.55 704.34 327.44 713.4 316.2 713.4C304.96 713.4 295.85 704.34 295.85 693.165Z" stroke="#D9D9D9" stroke-width="16.5" stroke-linejoin="round"/>
<path d="M55.9146 104.2C86.6686 104.2 111.6 78.9589 111.6 47.8252C111.6 16.6915 86.6686 -8.5498 55.9146 -8.5498" stroke="#59BAC3" stroke-width="16.5" stroke-linejoin="round"/>
<path d="M81.8999 133.556L81.8999 136.359C81.8999 152.314 68.9721 165.25 53.0249 165.25C37.0777 165.25 24.1499 152.314 24.1499 136.359L24.1499 48.3912C24.1499 32.4364 37.0777 19.5 53.0249 19.5C68.9721 19.5 81.8999 32.4364 81.8999 48.3912L81.8999 49.2537" stroke="#D2B8F5" stroke-width="16.5" stroke-linejoin="round"/>
<path d="M171 555.201C171 543.658 161.766 534.301 150.375 534.301C138.984 534.301 129.75 543.658 129.75 555.201C129.75 566.743 138.984 576.101 150.375 576.101C161.766 576.101 171 566.743 171 555.201Z" stroke="#D2B8F5" stroke-width="16.5" stroke-linejoin="round"/>
<path d="M138.286 606.128C166.954 613.797 196.314 597.209 203.866 569.082C211.418 540.955 194.298 511.939 165.63 504.272C136.962 496.604 107.602 513.191 100.05 541.318" stroke="#D9D9D9" stroke-width="16.5" stroke-linejoin="round"/>
<path d="M99.831 568.038L99.831 669.931C99.8207 689.567 83.5943 705.494 63.5861 705.503C43.578 705.512 27.3655 689.602 27.3755 669.966C27.3855 650.33 43.6117 634.402 63.6201 634.394L63.6201 667.57" stroke="#D2B8F5" stroke-width="16.5"/>
<path d="M0 570C4.04889 570 55.0203 570 80 570" stroke="#59BAC3" stroke-width="16.5" stroke-linejoin="round"/>
<path d="M287.6 757.589C287.6 766.404 280.583 773.55 271.925 773.55C263.267 773.55 256.25 766.404 256.25 757.589L256.25 740.55" stroke="#D9D9D9" stroke-width="16.5" stroke-linejoin="round"/>
<path d="M311.25 853.026C311.25 840.42 301.154 830.201 288.7 830.201C276.246 830.201 266.15 840.42 266.15 853.026C266.15 865.631 276.246 875.851 288.7 875.851C301.154 875.851 311.25 865.631 311.25 853.026Z" stroke="#FFBFDA" stroke-width="16.5" stroke-linejoin="round"/>
<path d="M288.15 804.9C260.206 804.9 237.55 827.185 237.55 854.675C237.55 882.165 260.206 904.45 288.15 904.45C316.094 904.45 338.75 882.165 338.75 854.675" stroke="#D2B8F5" stroke-width="16.5" stroke-linejoin="round"/>
<path d="M256.25 720.2L256.25 699.353C256.25 685.351 245.416 674 232.05 674C218.684 674 207.85 685.351 207.85 699.353L207.85 741.048C207.85 755.05 218.684 766.4 232.05 766.4" stroke="#D2B8F5" stroke-width="16.5" stroke-linejoin="round"/>
<path d="M221.6 804.351C196.086 804.351 175.4 783.756 175.4 758.351L175.4 677.301" stroke="#D2B8F5" stroke-width="16.5" stroke-linejoin="round"/>
<path d="M135.4 830.476C137.737 830.476 167.171 830.476 181.6 830.476" stroke="#FFBFDA" stroke-width="16.5" stroke-linejoin="round"/>
<path d="M37.3501 600.575C39.3823 600.575 64.9633 600.575 77.5001 600.575" stroke="#FFBFDA" stroke-width="16.5" stroke-linejoin="round"/>
<path d="M1.44248e-06 424.851C9.15909 424.851 16.584 432.239 16.584 441.351C16.584 450.462 9.15909 457.851 0 457.851" stroke="#D9D9D9" stroke-width="16.5" stroke-linejoin="round"/>
<path d="M0 486.45C24.96 486.45 45.194 466.135 45.194 441.075C45.194 416.015 24.96 395.7 3.96681e-06 395.7" stroke="#59BAC3" stroke-width="16.5" stroke-linejoin="round"/>
<path d="M165.74 358.851C153.763 358.851 144.05 349.248 144.05 337.401C144.05 325.553 153.763 315.951 165.74 315.951L190.25 315.951" stroke="#FFBFDA" stroke-width="16.5" stroke-linejoin="round"/>
<path d="M153.95 270.575C153.95 257.969 143.854 247.75 131.4 247.75C118.946 247.75 108.85 257.969 108.85 270.575C108.85 283.181 118.946 293.4 131.4 293.4C143.854 293.4 153.95 283.181 153.95 270.575Z" stroke="#FFBFDA" stroke-width="16.5" stroke-linejoin="round"/>
<path d="M231.225 314.996C242.616 314.996 251.85 324.199 251.85 335.548C251.85 346.897 242.616 356.1 231.225 356.1C219.834 356.1 210.6 346.897 210.6 335.548L210.6 258.75" stroke="#D9D9D9" stroke-width="16.5" stroke-linejoin="round"/>
<path d="M79.1499 340.7L79.1499 265.81C79.1499 237.307 102.299 214.2 130.85 214.2C159.401 214.2 182.55 237.307 182.55 265.811L182.55 288.339" stroke="#D2B8F5" stroke-width="16.5" stroke-linejoin="round"/>
<path d="M210.6 231.8L210.6 208.07C210.6 184.116 230.1 164.7 254.157 164.7L298.6 164.7" stroke="#D9D9D9" stroke-width="16.5" stroke-linejoin="round"/>
<path d="M268.9 208.7C268.9 200.498 262.375 193.85 254.325 193.85C246.275 193.85 239.75 200.498 239.75 208.7C239.75 216.901 246.275 223.55 254.325 223.55C262.375 223.55 268.9 216.901 268.9 208.7Z" stroke="#D2B8F5" stroke-width="16.5" stroke-linejoin="round"/>
<path d="M268.9 208.701C268.9 200.499 262.375 193.851 254.325 193.851C246.275 193.851 239.75 200.499 239.75 208.701C239.75 216.902 246.275 223.551 254.325 223.551C262.375 223.551 268.9 216.902 268.9 208.701Z" stroke="#D2B8F5" stroke-width="16.5" stroke-linejoin="round"/>
<path d="M303.55 289.291C309.05 289.281 314.55 289.27 320.05 289.26" stroke="#59BAC3" stroke-width="16.5" stroke-linejoin="round"/>
<path d="M271.1 289.291C276.6 289.281 282.1 289.27 287.6 289.26" stroke="#D9D9D9" stroke-width="16.5" stroke-linejoin="round"/>
<path d="M243.05 392.141C248.55 392.13 254.05 392.12 259.55 392.109" stroke="#59BAC3" stroke-width="16.5" stroke-linejoin="round"/>
<path d="M103.05 792.141C108.55 792.13 114.05 792.12 119.55 792.109" stroke="#59BAC3" stroke-width="16.5" stroke-linejoin="round"/>
<path d="M353.05 802.141C358.55 802.13 364.05 802.12 369.55 802.109" stroke="#59BAC3" stroke-width="16.5" stroke-linejoin="round"/>
<path d="M210.6 392.141C216.1 392.13 221.6 392.12 227.1 392.109" stroke="#FFBFDA" stroke-width="16.5" stroke-linejoin="round"/>
<path d="M320.6 802.141C326.1 802.13 331.6 802.12 337.1 802.109" stroke="#FFBFDA" stroke-width="16.5" stroke-linejoin="round"/>
<path d="M210.6 425.141C216.1 425.13 221.6 425.12 227.1 425.109" stroke="#D9D9D9" stroke-width="16.5" stroke-linejoin="round"/>
<path d="M167.15 653.94C172.65 653.93 178.15 653.919 183.65 653.909" stroke="#D2B8F5" stroke-width="16.5" stroke-linejoin="round"/>
<path d="M26.3501 277.741C31.8501 277.731 37.3501 277.72 42.8501 277.71" stroke="#D2B8F5" stroke-width="16.5" stroke-linejoin="round"/>
<path d="M26.3501 238.69C31.8501 238.68 37.3501 238.669 42.8501 238.659" stroke="#D2B8F5" stroke-width="16.5" stroke-linejoin="round"/>
<path d="M26.3501 199.641C31.8501 199.63 37.3501 199.62 42.8501 199.609" stroke="#D2B8F5" stroke-width="16.5" stroke-linejoin="round"/>
<path d="M1103.98 148.2C1134.34 148.2 1158.95 121.115 1158.95 87.7002C1158.95 76.0997 1155.98 65.2571 1150.84 56.0508M1066.55 27.2002L1103.98 27.2002C1115.95 27.2002 1127.04 31.4158 1136.07 38.5725" stroke="#FFBFDA" stroke-width="16.5" stroke-linejoin="round"/>
<path d="M1030.55 188.625L1030.55 190.349C1030.55 202.609 1020.58 212.55 1008.27 212.55C995.974 212.55 986 202.609 986 190.349L986 139.05C986 126.791 995.974 116.85 1008.27 116.85C1020.58 116.85 1030.55 126.791 1030.55 139.05L1030.55 140.775" stroke="#D2B8F5" stroke-width="16.5" stroke-linejoin="round"/>
<path d="M983.8 74.5004L1067.44 74.5004C1083.82 74.5004 1097.1 87.7965 1097.1 104.2C1097.1 120.604 1083.82 133.9 1067.44 133.9L1054.5 133.9" stroke="#59BAC3" stroke-width="16.5" stroke-linejoin="round"/>
<path d="M1065.22 512.943C1053.23 512.943 1043.5 503.317 1043.5 491.444C1043.5 479.572 1053.23 469.95 1065.22 469.95C1077.22 469.95 1086.95 479.572 1086.95 491.444L1086.95 563.45" stroke="#FFBFDA" stroke-width="16.5" stroke-linejoin="round"/>
<path d="M1056.7 633.165L1056.7 578.486C1056.7 567.309 1047.59 558.25 1036.35 558.25C1025.11 558.25 1016 567.309 1016 578.486L1016 633.165C1016 644.34 1025.11 653.4 1036.35 653.4C1047.59 653.4 1056.7 644.34 1056.7 633.165Z" stroke="#D9D9D9" stroke-width="16.5" stroke-linejoin="round"/>
<path d="M1169.17 537C1157.78 537 1148.55 546.357 1148.55 557.9C1148.55 569.443 1157.78 578.8 1169.17 578.8" stroke="#D2B8F5" stroke-width="16.5" stroke-linejoin="round"/>
<path d="M1169.18 613.142C1139.5 613.13 1115.44 589.508 1115.42 560.385C1115.41 531.262 1139.45 507.665 1169.13 507.679" stroke="#D9D9D9" stroke-width="16.5" stroke-linejoin="round"/>
<path d="M1034.95 757.589C1034.95 766.404 1041.97 773.55 1050.62 773.55C1059.28 773.55 1066.3 766.404 1066.3 757.589L1066.3 740.55" stroke="#D9D9D9" stroke-width="16.5" stroke-linejoin="round"/>
<path d="M1090.95 794.351C1116.46 794.351 1137.15 773.756 1137.15 748.351L1137.15 667.301" stroke="#D2B8F5" stroke-width="16.5" stroke-linejoin="round"/>
<path d="M1097.2 830.475C1094.86 830.475 1065.43 830.475 1051 830.475" stroke="#FFBFDA" stroke-width="16.5" stroke-linejoin="round"/>
<path d="M1091.32 314.996C1079.93 314.996 1070.7 324.199 1070.7 335.548C1070.7 346.897 1079.93 356.1 1091.32 356.1C1102.72 356.1 1111.95 346.897 1111.95 335.548L1111.95 258.75" stroke="#D9D9D9" stroke-width="16.5" stroke-linejoin="round"/>
<path d="M1169.7 214.2C1141.15 214.2 1141 237.307 1141 265.811L1141 288.339" stroke="#D2B8F5" stroke-width="16.5" stroke-linejoin="round"/>
<path d="M1111.95 231.8L1111.95 208.07C1111.95 184.116 1092.45 164.7 1068.39 164.7L1023.95 164.7" stroke="#D9D9D9" stroke-width="16.5" stroke-linejoin="round"/>
<path d="M1053.65 208.7C1053.65 200.498 1060.18 193.85 1068.22 193.85C1076.27 193.85 1082.8 200.498 1082.8 208.7C1082.8 216.901 1076.27 223.55 1068.22 223.55C1060.18 223.55 1053.65 216.901 1053.65 208.7Z" stroke="#D2B8F5" stroke-width="16.5" stroke-linejoin="round"/>
<path d="M1053.65 208.701C1053.65 200.499 1060.18 193.851 1068.22 193.851C1076.27 193.851 1082.8 200.499 1082.8 208.701C1082.8 216.902 1076.27 223.551 1068.22 223.551C1060.18 223.551 1053.65 216.902 1053.65 208.701Z" stroke="#D2B8F5" stroke-width="16.5" stroke-linejoin="round"/>
<path d="M1049 269.291C1043.5 269.281 1038 269.27 1032.5 269.26" stroke="#59BAC3" stroke-width="16.5" stroke-linejoin="round"/>
<path d="M1081.45 269.291C1075.95 269.281 1070.45 269.27 1064.95 269.26" stroke="#D9D9D9" stroke-width="16.5" stroke-linejoin="round"/>
<path d="M1079.5 392.141C1074 392.13 1068.5 392.12 1063 392.109" stroke="#59BAC3" stroke-width="16.5" stroke-linejoin="round"/>
<path d="M1111.95 392.141C1106.45 392.13 1100.95 392.12 1095.45 392.109" stroke="#FFBFDA" stroke-width="16.5" stroke-linejoin="round"/>
<path d="M1111.95 425.141C1106.45 425.13 1100.95 425.12 1095.45 425.109" stroke="#D9D9D9" stroke-width="16.5" stroke-linejoin="round"/>
<path d="M1145.4 643.941C1139.9 643.931 1134.4 643.92 1128.9 643.91" stroke="#D2B8F5" stroke-width="16.5" stroke-linejoin="round"/>
<path d="M951.4 916.55C923.456 916.55 900.8 894.265 900.8 866.775C900.8 839.285 923.456 817 951.4 817C979.344 817 1002 839.285 1002 866.775" stroke="#D2B8F5" stroke-width="16.5" stroke-linejoin="round"/>
<path d="M974.6 868.325C974.6 880.931 964.504 891.15 952.05 891.15C939.596 891.15 929.5 880.931 929.5 868.325C929.5 855.719 939.596 845.5 952.05 845.5C964.504 845.5 974.6 855.719 974.6 868.325Z" stroke="#FFBFDA" stroke-width="16.5" stroke-linejoin="round"/>
</g>
<defs>
<clipPath id="clip0_465_4338">
<rect width="1170" height="844" fill="white"/>
</clipPath>
</defs>
</svg>
