<svg width="36" height="35" viewBox="0 0 36 35" fill="none" xmlns="http://www.w3.org/2000/svg">
<path d="M31.5001 22.246C31.3276 22.3679 27.7501 26.1517 27.7501 28.8085C27.7501 31.6098 29.5295 33.3985 31.5001 33.496C33.1989 33.5785 35.2501 31.8254 35.2501 28.8085C35.2501 25.996 31.6726 22.3679 31.5001 22.246ZM0.401367 20.371C0.401367 21.3723 0.791367 22.3135 1.50012 23.0223L11.9739 33.496C12.6826 34.2048 13.6239 34.5948 14.6251 34.5948C15.6264 34.5948 16.5676 34.2048 17.2764 33.496L30.4014 20.371L29.0757 19.0454L14.6251 4.59479L10.3257 0.29541L7.67449 2.94666L11.9739 7.24604L1.50012 17.7198C0.791367 18.4285 0.401367 19.3698 0.401367 20.371ZM14.6251 9.89729L25.0989 20.371L14.6251 30.8448H14.627L14.6251 32.7198V30.8448L4.15137 20.371L14.6251 9.89729Z" fill="white"/>
</svg>
