<svg width="45" height="45" viewBox="0 0 45 45" fill="none" xmlns="http://www.w3.org/2000/svg">
<path d="M37.4155 7.60999C35.4613 5.6451 33.1368 4.08732 30.5766 3.02682C28.0164 1.96632 25.2712 1.42416 22.5 1.43172C16.8877 1.43172 11.606 3.28261 7.62785 6.64363C3.61582 10.0329 1.40625 14.5496 1.40625 19.3614C1.40625 23.9685 3.45577 28.3459 7.17741 31.6872C10.8512 34.9861 15.805 36.963 21.1257 37.2537C21.3061 37.2627 21.4763 37.3405 21.6012 37.471C21.7261 37.6016 21.7962 37.775 21.7971 37.9557V41.4578C21.7974 41.7352 21.8522 42.0097 21.9586 42.2659C22.065 42.522 22.2208 42.7547 22.4171 42.9506C22.6135 43.1465 22.8465 43.3017 23.1028 43.4075C23.3592 43.5133 23.6339 43.5676 23.9113 43.5672C23.9624 43.5672 24.0136 43.5653 24.0648 43.5616C28.0924 43.2618 31.9492 41.8122 35.1772 39.3849C38.4051 36.9577 40.8684 33.6548 42.2743 29.8687C43.6802 26.0826 43.9697 21.9725 43.1084 18.0267C42.2471 14.0809 40.2712 10.4653 37.4154 7.60946L37.4155 7.60999ZM10.5469 18.2811C9.85155 18.2811 9.17184 18.0749 8.5937 17.6886C8.01556 17.3023 7.56495 16.7532 7.29886 16.1108C7.03277 15.4684 6.96315 14.7615 7.0988 14.0796C7.23445 13.3976 7.56928 12.7712 8.06095 12.2795C8.55262 11.7878 9.17905 11.453 9.86101 11.3174C10.543 11.1817 11.2499 11.2513 11.8922 11.5174C12.5346 11.7835 13.0837 12.2341 13.47 12.8123C13.8563 13.3904 14.0625 14.0701 14.0625 14.7654C14.0625 15.6978 13.6921 16.592 13.0328 17.2514C12.3735 17.9107 11.4793 18.2811 10.5469 18.2811ZM20.3906 12.6561C19.6953 12.6561 19.0156 12.4499 18.4374 12.0636C17.8593 11.6773 17.4087 11.1282 17.1426 10.4858C16.8765 9.8434 16.8069 9.13653 16.9426 8.45457C17.0782 7.7726 17.413 7.14618 17.9047 6.65451C18.3964 6.16284 19.0228 5.82801 19.7048 5.69236C20.3867 5.5567 21.0936 5.62633 21.736 5.89242C22.3784 6.1585 22.9275 6.60911 23.3138 7.18725C23.7001 7.76539 23.9062 8.4451 23.9062 9.14043C23.9062 10.0728 23.5359 10.967 22.8765 11.6264C22.2172 12.2857 21.323 12.6561 20.3906 12.6561ZM27.4219 11.9529C27.4219 11.2576 27.6281 10.5779 28.0144 9.99975C28.4007 9.42161 28.9497 8.971 29.5921 8.70492C30.2345 8.43883 30.9414 8.3692 31.6234 8.50486C32.3053 8.64051 32.9318 8.97534 33.4234 9.46701C33.9151 9.95868 34.2499 10.5851 34.3856 11.2671C34.5212 11.949 34.4516 12.6559 34.1855 13.2983C33.9194 13.9407 33.4688 14.4898 32.8907 14.8761C32.3125 15.2624 31.6328 15.4686 30.9375 15.4686C30.0051 15.4686 29.1109 15.0982 28.4516 14.4389C27.7923 13.7795 27.4219 12.8853 27.4219 11.9529ZM35.8594 25.3123C35.1641 25.3123 34.4843 25.1061 33.9062 24.7198C33.3281 24.3335 32.8775 23.7844 32.6114 23.1421C32.3453 22.4997 32.2757 21.7928 32.4113 21.1108C32.547 20.4289 32.8818 19.8024 33.3735 19.3108C33.8651 18.8191 34.4915 18.4843 35.1735 18.3486C35.8555 18.213 36.5624 18.2826 37.2047 18.5487C37.8471 18.8148 38.3962 19.2654 38.7825 19.8435C39.1688 20.4216 39.375 21.1014 39.375 21.7967C39.375 22.7291 39.0046 23.6233 38.3453 24.2826C37.686 24.9419 36.7918 25.3123 35.8594 25.3123Z" fill="white"/>
</svg>
