<svg width="45" height="45" viewBox="0 0 45 45" fill="none" xmlns="http://www.w3.org/2000/svg">
<path d="M3.75 16.4062C3.75 9.4164 9.4164 3.75 16.4062 3.75C22.9207 3.75 28.2857 8.67195 28.9853 15H22.9688C18.5677 15 15 18.5677 15 22.9688V28.9853C8.67195 28.2857 3.75 22.9207 3.75 16.4062Z" fill="white"/>
<path d="M22.9688 16.875C19.6033 16.875 16.875 19.6033 16.875 22.9688V35.1562C16.875 38.5217 19.6033 41.25 22.9688 41.25H35.1562C38.5217 41.25 41.25 38.5217 41.25 35.1562V22.9688C41.25 19.6033 38.5217 16.875 35.1562 16.875H22.9688Z" fill="white"/>
</svg>
